<svg id="圖層_1" data-name="圖層 1" xmlns="http://www.w3.org/2000/svg" viewBox="0 0 283.46 283.46"><title>TOP</title><path d="M264.33,142.1c0,16.83.05,33.66,0,50.49-.05,12.16-5.25,21.54-15.84,27.6q-43.15,24.7-86.39,49.22c-13.22,7.54-26,7.12-39.23-.59C94.62,252.43,66,236.7,37.64,220.57c-12.25-7-18.7-17.22-18.55-31.84.33-32,.17-64,.07-96,0-13.22,6.41-22.68,17.28-29C65.56,46.95,95,30.57,124.19,13.93c12.58-7.16,25-7,37.5.1Q195.35,33.19,229,52.32c6.66,3.79,13.34,7.54,20,11.39,10.3,6,15.15,15.25,15.29,26.9C264.48,107.77,264.33,124.94,264.33,142.1Zm-235.07-.36c0,16.21.45,32.43-.16,48.62-.38,10.15,4.17,16.58,12.35,21.17Q86.79,237,132.21,262.27c8,4.48,15.85,4.22,23.68-.77,4.84-3.08,10-5.67,15-8.51C195,239.31,219,225.5,243.15,212,251,207.62,255,201.27,255,192.56c.11-33.11,0-66.22.07-99.34,0-10.12-3.91-17.3-13.14-22.4-29.27-16.18-58.23-32.92-87.3-49.45-7.83-4.45-15.6-4.17-23.34.17q-14.81,8.3-29.61,16.65C80.94,49.94,60.13,61.62,39.46,73.54c-6.75,3.89-10.47,9.63-10.3,18C29.5,108.27,29.26,125,29.26,141.74Z" style="fill:#9d7e41"/><rect x="137.54" y="105.98" width="8" height="80.75" style="fill:#9d7e41"/><polygon points="123.3 127.66 116.94 121.29 141.5 96.74 166.14 121.38 159.77 127.74 141.5 109.47 123.3 127.66" style="fill:#9d7e41"/></svg>